<svg width="61" height="61" viewBox="0 0 61 61" fill="none" xmlns="http://www.w3.org/2000/svg">
<g clip-path="url(#clip0_116_1089)">
<mask id="mask0_116_1089" style="mask-type:luminance" maskUnits="userSpaceOnUse" x="0" y="0" width="61" height="61">
<path d="M60.7871 0.333496H0.787109V60.3335H60.7871V0.333496Z" fill="white"/>
</mask>
<g mask="url(#mask0_116_1089)">
<mask id="mask1_116_1089" style="mask-type:luminance" maskUnits="userSpaceOnUse" x="0" y="0" width="61" height="61">
<path d="M0.787109 0.3335H60.7871V60.3335H0.787109V0.3335Z" fill="white"/>
</mask>
<g mask="url(#mask1_116_1089)">
<path d="M59.127 59.571C59.6313 59.52 60.0253 59.0937 60.0254 58.5759V2.09155C60.0254 1.53942 59.5775 1.0918 59.0254 1.09155H30.7783C30.2261 1.09167 29.7783 1.53934 29.7783 2.09155V9.79761C29.7783 10.303 29.3482 10.6733 28.8926 10.6355L28.8008 10.6228C28.3162 10.5236 27.8109 10.4864 27.2939 10.5183V10.5173C24.5452 10.6866 22.2981 12.8361 21.9834 15.5496L21.959 15.8132C21.7303 19.1454 24.3682 21.9216 27.6533 21.9216C28.0278 21.9216 28.395 21.8857 28.751 21.8162L28.8535 21.8015C29.3614 21.759 29.7782 22.1478 29.7783 22.6306V29.3376H23.0918C21.3219 29.3377 19.9421 30.9537 20.3008 32.7234C20.348 32.9565 20.3731 33.1989 20.374 33.448L20.3672 33.699C20.2574 35.4766 18.8565 36.9401 17.1025 37.1443L16.9316 37.1599C14.7643 37.3085 12.9621 35.5962 12.9619 33.4626C12.9619 33.2198 12.9843 32.9832 13.0283 32.7556H13.0293L13.0557 32.5925C13.2843 30.9105 12.0151 29.3377 10.2441 29.3376H2.54883C1.9967 29.3377 1.549 29.7855 1.54883 30.3376V58.5759L1.55371 58.6785C1.60514 59.1824 2.03128 59.5759 2.54883 59.5759H59.0254L59.127 59.571ZM31.7783 22.6306C31.7782 20.8092 30.1083 19.5137 28.3682 19.8533H28.3672C28.1372 19.8982 27.8985 19.9216 27.6533 19.9216C25.5189 19.9216 23.8055 18.1193 23.9541 15.9509L23.9697 15.78C24.1738 14.0249 25.6384 12.6239 27.417 12.5144L27.6699 12.5066C27.9208 12.5077 28.1646 12.5337 28.3994 12.5818L28.5654 12.6111C30.2672 12.8571 31.7783 11.5059 31.7783 9.79761V3.09155H58.0254V29.3376H51.3213L51.2227 29.3328C51.1642 29.3261 51.1082 29.3123 51.0547 29.2947C50.7028 29.1756 50.4549 28.8238 50.4893 28.4128C50.4916 28.3953 50.4935 28.3776 50.4971 28.3601L50.5596 27.9929C50.5655 27.9497 50.5673 27.9056 50.5723 27.8621C50.5753 27.8351 50.5784 27.8081 50.5811 27.781C50.5987 27.6023 50.6115 27.4217 50.6123 27.239L50.6016 26.8542C50.5664 26.2836 50.4442 25.735 50.251 25.2205C50.2431 25.1993 50.2357 25.178 50.2275 25.157C50.167 25.0014 50.1009 24.8487 50.0273 24.7C49.043 22.6956 46.9185 21.3526 44.501 21.5183V21.5193C43.8612 21.5632 43.2502 21.7157 42.6846 21.9558C42.676 21.9594 42.6677 21.9639 42.6592 21.9675C42.4894 22.0406 42.3231 22.1201 42.1621 22.2087C42.1579 22.2111 42.1536 22.2132 42.1494 22.2156C41.9865 22.3059 41.8286 22.4042 41.6758 22.5095C41.6537 22.5247 41.6322 22.5409 41.6104 22.5564C41.5666 22.5874 41.5233 22.6189 41.4805 22.6511C41.4473 22.6761 41.4145 22.7016 41.3818 22.7273C41.3374 22.7623 41.2933 22.7975 41.25 22.8337C41.2275 22.8526 41.2048 22.8712 41.1826 22.8904C41.1379 22.9289 41.0943 22.9687 41.0508 23.0085C41.0263 23.031 41.0016 23.0531 40.9775 23.0759C40.9311 23.12 40.8857 23.1651 40.8408 23.2107C40.8243 23.2274 40.8073 23.2436 40.791 23.2605C39.9382 24.147 39.3673 25.3061 39.2275 26.5876L39.2051 26.8523C39.1731 27.3697 39.2106 27.8756 39.3096 28.3601L39.3203 28.4353C39.3468 28.8854 39.0363 29.2583 38.625 29.3259C38.6118 29.3281 38.5984 29.3302 38.585 29.3318L38.4854 29.3376H31.7783V22.6306ZM31.7871 50.8718C31.7871 50.8381 31.7892 50.8047 31.793 50.7722C31.8494 50.3057 32.2974 49.9566 32.8145 50.0574L33.083 50.1033C33.0934 50.1048 33.1038 50.1067 33.1143 50.1082L33.1318 50.1101C33.1513 50.1128 33.1709 50.1145 33.1904 50.1169C33.2414 50.1234 33.2924 50.1295 33.3438 50.1345C33.3843 50.1385 33.425 50.1421 33.4658 50.1453C33.5197 50.1494 33.5737 50.1524 33.6279 50.155C33.6588 50.1566 33.6897 50.1589 33.7207 50.1599C33.7842 50.162 33.8482 50.1628 33.9121 50.1628H33.9814L34.208 50.155C34.2129 50.1548 34.2178 50.1543 34.2227 50.1541C34.2386 50.1532 34.2546 50.1531 34.2705 50.1521L34.5352 50.1296C34.7087 50.1107 34.8801 50.0839 35.0488 50.0496C35.0839 50.0425 35.1185 50.0338 35.1533 50.0261C35.2095 50.0136 35.2657 50.0013 35.3213 49.9871C35.3678 49.9752 35.4139 49.9619 35.46 49.949C35.4884 49.9409 35.5166 49.9321 35.5449 49.9236C35.6122 49.9035 35.6789 49.8826 35.7451 49.8601C35.7553 49.8566 35.7653 49.8529 35.7754 49.8494C37.6281 49.2092 39.0471 47.643 39.4795 45.7039C39.4892 45.6607 39.4982 45.6174 39.5068 45.574C39.5139 45.5386 39.52 45.5031 39.5264 45.4675C39.5365 45.4111 39.5462 45.3546 39.5547 45.2976C39.5607 45.2567 39.5661 45.2157 39.5713 45.1746C39.5761 45.1366 39.58 45.0985 39.584 45.0603C39.5901 45.0022 39.5962 44.9441 39.6006 44.8855C39.6013 44.876 39.6029 44.8666 39.6035 44.8572L39.6055 44.8054C39.6096 44.737 39.6126 44.6684 39.6143 44.5994L39.6172 44.5466C39.6177 44.5167 39.6162 44.4866 39.6162 44.4568C39.6162 44.4269 39.6177 44.3969 39.6172 44.3669L39.6152 44.325C39.6139 44.2664 39.6105 44.2082 39.6074 44.1501L39.6045 44.0564C39.6032 44.0379 39.6001 44.0192 39.5986 44.0007C39.5958 43.9655 39.5923 43.9304 39.5889 43.8953C39.5829 43.8344 39.5762 43.7739 39.5684 43.7136C39.5644 43.6829 39.5601 43.6524 39.5557 43.6218C39.5471 43.5639 39.5376 43.5063 39.5273 43.449C39.5209 43.4127 39.514 43.3766 39.5068 43.3406C39.4978 43.2951 39.4877 43.2499 39.4775 43.2048C39.4671 43.1581 39.4569 43.1115 39.4453 43.0652C39.4353 43.0256 39.4249 42.9863 39.4141 42.947C38.9387 41.2109 37.6645 39.8061 36.0098 39.1511C36.0009 39.1476 35.9922 39.1438 35.9834 39.1404C35.9169 39.1144 35.8499 39.0896 35.7822 39.0662C35.7677 39.0611 35.7529 39.0565 35.7383 39.0515C35.6752 39.0302 35.6119 39.0091 35.5479 38.99C35.5206 38.9818 35.4932 38.9743 35.4658 38.9666C35.4133 38.9517 35.3607 38.9369 35.3076 38.9236C35.2382 38.906 35.1681 38.8907 35.0977 38.8757C35.0878 38.8737 35.0782 38.8709 35.0684 38.8689C34.8933 38.8326 34.7155 38.8036 34.5352 38.7839L34.2715 38.7615C34.2549 38.7605 34.2382 38.7614 34.2217 38.7605C34.1989 38.7593 34.1761 38.7585 34.1533 38.7576C34.0801 38.7545 34.0073 38.752 33.9346 38.7517C33.9268 38.7517 33.9189 38.7507 33.9111 38.7507C33.8461 38.7507 33.7813 38.7525 33.7168 38.7546C33.6998 38.7552 33.6829 38.7559 33.666 38.7566C33.5862 38.7599 33.5068 38.7646 33.4277 38.7712C33.415 38.7723 33.4024 38.774 33.3896 38.7751C33.313 38.7821 33.2369 38.7906 33.1611 38.8005C33.1514 38.8018 33.1416 38.8021 33.1318 38.8035L33.1182 38.8064C33.1065 38.808 33.0946 38.8086 33.083 38.8103L32.8145 38.8562C32.2956 38.9574 31.847 38.6051 31.793 38.1365C31.7896 38.1055 31.7871 38.0739 31.7871 38.0417V31.3376H38.4912C39.2305 31.3376 39.8832 31.0621 40.375 30.6189C41.0225 30.0448 41.4031 29.1853 41.3135 28.2576C41.3091 28.2021 41.3036 28.1464 41.2959 28.0906L41.2686 27.9275C41.2236 27.6974 41.2002 27.4586 41.2002 27.2136C41.2002 25.0798 43.0022 23.3676 45.1699 23.5164L45.3408 23.532C46.832 23.7056 48.0644 24.7899 48.4688 26.2029C48.5593 26.5237 48.6093 26.8618 48.6094 27.2117C48.6094 27.4566 48.5859 27.6958 48.541 27.9265L48.5137 28.0896L48.5078 28.1248C48.3489 29.2252 48.8579 30.246 49.6992 30.8298C50.1511 31.1477 50.7048 31.3376 51.3184 31.3376H58.0254V57.5759H31.7871V50.8718ZM3.54883 31.3376H10.2441C10.7292 31.3377 11.1211 31.7566 11.0791 32.2712L11.0654 32.3757C10.9972 32.7284 10.9619 33.0921 10.9619 33.4626C10.9621 36.7467 13.7374 39.3834 17.0684 39.155L17.332 39.1306C20.0448 38.8163 22.1936 36.57 22.3633 33.822L22.374 33.4392C22.373 33.1859 22.3555 32.9356 22.3223 32.6902L22.2607 32.3259C22.1603 31.8302 22.5501 31.3377 23.0918 31.3376H29.7871V38.0417C29.7872 38.5837 29.9349 39.0792 30.1885 39.4988C30.7751 40.4812 31.9318 41.0779 33.165 40.8259H33.166L33.3799 40.7898C33.4614 40.7781 33.5437 40.7688 33.627 40.7625C33.7854 40.7504 33.947 40.748 34.1113 40.7566C34.1945 40.761 34.2768 40.7692 34.3584 40.7791C36.0207 40.9793 37.365 42.307 37.585 43.9646C37.5993 44.0722 37.6074 44.1814 37.6123 44.2917L37.6152 44.3523C37.6162 44.387 37.6162 44.4218 37.6162 44.4568C37.6161 44.7756 37.5757 45.0845 37.5 45.3796C37.1489 46.7363 36.0354 47.8038 34.6553 48.0876C34.4204 48.1355 34.1775 48.1617 33.9287 48.1628C33.9013 48.163 33.8739 48.1623 33.8467 48.1619C33.688 48.1592 33.5322 48.1466 33.3799 48.1248L33.165 48.0886C31.9497 47.8402 30.8092 48.4151 30.2148 49.3718L30.1475 49.4841C29.9189 49.8885 29.7871 50.3596 29.7871 50.8718V57.5759H3.54883V31.3376Z" fill="white" fill-opacity="0.2"/>
<path d="M23.7178 2.09131H16.6572" stroke="#DF243A" stroke-width="2" stroke-miterlimit="10" stroke-linecap="round" stroke-linejoin="round"/>
<path d="M9.42469 2.09115H2.54883V8.98096" stroke="#DF243A" stroke-width="2" stroke-miterlimit="10" stroke-linecap="round" stroke-linejoin="round"/>
<path d="M2.54883 23.2729V16.2124" stroke="#DF243A" stroke-width="2" stroke-miterlimit="10" stroke-linecap="round" stroke-linejoin="round"/>
</g>
</g>
</g>
<defs>
<clipPath id="clip0_116_1089">
<rect width="60" height="60" fill="white" transform="translate(0.787109 0.333496)"/>
</clipPath>
</defs>
</svg>
