<svg width="61" height="61" viewBox="0 0 61 61" fill="none" xmlns="http://www.w3.org/2000/svg">
<mask id="mask0_2084_385" style="mask-type:luminance" maskUnits="userSpaceOnUse" x="0" y="0" width="61" height="61">
<path d="M0.333496 0.333256H60.3335V60.3333H0.333496V0.333256Z" fill="white"/>
</mask>
<g mask="url(#mask0_2084_385)">
<path d="M58.0923 58.9846C58.5964 58.9333 58.9897 58.5072 58.9897 57.9895C58.9897 57.4718 58.5964 57.0457 58.0923 56.9944L57.9897 56.9895H54.771V20.6331C54.7709 20.2866 54.5911 19.9646 54.2964 19.7825C54.0017 19.6005 53.6336 19.5836 53.3237 19.7385L43.9487 24.426C43.61 24.5954 43.3961 24.9419 43.396 25.3206V56.9895H36.021V30.0081C36.0209 29.6616 35.8411 29.3396 35.5464 29.1575C35.2517 28.9755 34.8836 28.9586 34.5737 29.1135L25.1987 33.801C24.86 33.9704 24.6461 34.3169 24.646 34.6956V56.9895H17.271V39.3831C17.2709 39.0366 17.0911 38.7146 16.7964 38.5325C16.5017 38.3505 16.1336 38.3336 15.8237 38.4885L6.44873 43.176C6.11002 43.3454 5.89608 43.6919 5.896 44.0706V56.9895H2.67725C2.12496 56.9895 1.67725 57.4372 1.67725 57.9895C1.67725 58.5418 2.12496 58.9895 2.67725 58.9895H57.9897L58.0923 58.9846ZM45.396 25.9387L52.771 22.2512V56.9895H45.396V25.9387ZM26.646 35.3137L34.021 31.6262V56.9895H26.646V35.3137ZM7.896 44.6887L15.271 41.0012V56.9895H7.896V44.6887Z" fill="white" fill-opacity="0.2"/>
<path d="M42.9631 2.67716L51.4983 5.1763L48.6106 15.0383" stroke="#DF243A" stroke-width="2" stroke-miterlimit="10" stroke-linecap="round" stroke-linejoin="round"/>
<path d="M51.4983 5.17619L5.72705 30.2144" stroke="#DF243A" stroke-width="2" stroke-miterlimit="10" stroke-linecap="round" stroke-linejoin="round"/>
</g>
</svg>
